<mxfile host="app.diagrams.net" agent="Mozilla/5.0 (Windows NT 10.0; Win64; x64; rv:139.0) Gecko/20100101 Firefox/139.0" version="27.1.6">
  <diagram name="Page-1" id="IkYNe_tvrp3e6642Grr8">
    <mxGraphModel dx="1425" dy="786" grid="1" gridSize="10" guides="1" tooltips="1" connect="1" arrows="1" fold="1" page="1" pageScale="1" pageWidth="850" pageHeight="1100" math="0" shadow="0">
      <root>
        <mxCell id="0" />
        <mxCell id="1" parent="0" />
        <mxCell id="NzKdBhivD-xaXoP95iIL-1" value="Add / Edit Tour" style="strokeWidth=1;shadow=0;dashed=0;align=center;html=1;shape=mxgraph.mockup.containers.window;align=left;verticalAlign=top;spacingLeft=8;strokeColor2=#008cff;strokeColor3=#c4c4c4;fontColor=#666666;mainText=;fontSize=17;labelBackgroundColor=none;whiteSpace=wrap;" vertex="1" parent="1">
          <mxGeometry x="120" y="150" width="520" height="730" as="geometry" />
        </mxCell>
        <mxCell id="NzKdBhivD-xaXoP95iIL-2" value="" style="html=1;shadow=0;dashed=0;shape=mxgraph.bootstrap.rrect;rSize=5;strokeColor=#CED4DA;html=1;whiteSpace=wrap;fillColor=#FFFFFF;fontColor=#7D868C;align=left;spacing=15;spacingLeft=40;fontSize=14;" vertex="1" parent="1">
          <mxGeometry x="130" y="210" width="500" height="30" as="geometry" />
        </mxCell>
        <mxCell id="NzKdBhivD-xaXoP95iIL-5" value="" style="html=1;shadow=0;dashed=0;shape=mxgraph.bootstrap.rrect;rSize=5;strokeColor=#CED4DA;html=1;whiteSpace=wrap;fillColor=#FFFFFF;fontColor=#7D868C;align=left;spacing=15;spacingLeft=40;fontSize=14;" vertex="1" parent="1">
          <mxGeometry x="130" y="270" width="500" height="80" as="geometry" />
        </mxCell>
        <mxCell id="NzKdBhivD-xaXoP95iIL-11" value="Car" style="html=1;shadow=0;dashed=0;shape=mxgraph.bootstrap.rrect;rSize=5;strokeColor=#CED4DA;html=1;whiteSpace=wrap;fillColor=#FFFFFF;fontColor=#7D868C;align=left;spacing=15;fontSize=14;" vertex="1" parent="1">
          <mxGeometry x="130" y="447" width="500" height="30" as="geometry" />
        </mxCell>
        <mxCell id="NzKdBhivD-xaXoP95iIL-12" value="" style="shape=triangle;direction=south;fillColor=#343A40;strokeColor=none;perimeter=none;" vertex="1" parent="NzKdBhivD-xaXoP95iIL-11">
          <mxGeometry x="1" y="0.5" width="7" height="3" relative="1" as="geometry">
            <mxPoint x="-15" y="1" as="offset" />
          </mxGeometry>
        </mxCell>
        <mxCell id="NzKdBhivD-xaXoP95iIL-13" value="" style="shape=triangle;direction=north;fillColor=#343A40;strokeColor=none;perimeter=none;" vertex="1" parent="NzKdBhivD-xaXoP95iIL-11">
          <mxGeometry x="1" y="0.5" width="7" height="3" relative="1" as="geometry">
            <mxPoint x="-15" y="-4" as="offset" />
          </mxGeometry>
        </mxCell>
        <mxCell id="NzKdBhivD-xaXoP95iIL-18" value="" style="html=1;shadow=0;dashed=0;shape=mxgraph.bootstrap.rrect;rSize=5;strokeColor=#CED4DA;html=1;whiteSpace=wrap;fillColor=#FFFFFF;fontColor=#7D868C;align=left;spacing=15;spacingLeft=40;fontSize=14;" vertex="1" parent="1">
          <mxGeometry x="130" y="502" width="240" height="30" as="geometry" />
        </mxCell>
        <mxCell id="NzKdBhivD-xaXoP95iIL-20" value="" style="html=1;shadow=0;dashed=0;shape=mxgraph.bootstrap.rrect;rSize=5;strokeColor=#CED4DA;html=1;whiteSpace=wrap;fillColor=#FFFFFF;fontColor=#7D868C;align=left;spacing=15;spacingLeft=40;fontSize=14;" vertex="1" parent="1">
          <mxGeometry x="390" y="502" width="240" height="30" as="geometry" />
        </mxCell>
        <mxCell id="NzKdBhivD-xaXoP95iIL-21" value="" style="html=1;shadow=0;dashed=0;shape=mxgraph.bootstrap.rrect;rSize=5;strokeColor=#CED4DA;html=1;whiteSpace=wrap;fillColor=#FFFFFF;fontColor=#7D868C;align=left;spacing=15;fontSize=14;" vertex="1" parent="1">
          <mxGeometry x="130" y="380" width="240" height="30" as="geometry" />
        </mxCell>
        <mxCell id="NzKdBhivD-xaXoP95iIL-24" value="&lt;div align=&quot;center&quot;&gt;Find&lt;/div&gt;" style="html=1;shadow=0;dashed=0;shape=mxgraph.bootstrap.rightButton;strokeColor=#CED4DA;gradientColor=inherit;fontColor=inherit;fillColor=#E9ECEF;rSize=5;perimeter=none;whiteSpace=wrap;resizeHeight=1;fontSize=14;align=center;spacing=15;" vertex="1" parent="NzKdBhivD-xaXoP95iIL-21">
          <mxGeometry x="1" width="80" height="30" relative="1" as="geometry">
            <mxPoint x="-80" as="offset" />
          </mxGeometry>
        </mxCell>
        <mxCell id="NzKdBhivD-xaXoP95iIL-34" value="&lt;span style=&quot;color: rgb(78, 78, 78);&quot;&gt;Start Location:&lt;/span&gt;" style="text;html=1;align=left;verticalAlign=middle;whiteSpace=wrap;rounded=0;" vertex="1" parent="NzKdBhivD-xaXoP95iIL-21">
          <mxGeometry x="1" y="-30" width="99" height="30" as="geometry" />
        </mxCell>
        <mxCell id="NzKdBhivD-xaXoP95iIL-25" value="" style="html=1;shadow=0;dashed=0;shape=mxgraph.bootstrap.rrect;rSize=5;strokeColor=#CED4DA;html=1;whiteSpace=wrap;fillColor=#FFFFFF;fontColor=#7D868C;align=left;spacing=15;fontSize=14;" vertex="1" parent="1">
          <mxGeometry x="390" y="380" width="240" height="30" as="geometry" />
        </mxCell>
        <mxCell id="NzKdBhivD-xaXoP95iIL-26" value="&lt;div align=&quot;center&quot;&gt;Find&lt;/div&gt;" style="html=1;shadow=0;dashed=0;shape=mxgraph.bootstrap.rightButton;strokeColor=#CED4DA;gradientColor=inherit;fontColor=inherit;fillColor=#E9ECEF;rSize=5;perimeter=none;whiteSpace=wrap;resizeHeight=1;fontSize=14;align=center;spacing=15;" vertex="1" parent="NzKdBhivD-xaXoP95iIL-25">
          <mxGeometry x="1" width="80" height="30" relative="1" as="geometry">
            <mxPoint x="-80" as="offset" />
          </mxGeometry>
        </mxCell>
        <mxCell id="NzKdBhivD-xaXoP95iIL-27" value="" style="verticalLabelPosition=bottom;shadow=0;dashed=0;align=center;html=1;verticalAlign=top;strokeWidth=1;shape=mxgraph.mockup.misc.map;" vertex="1" parent="1">
          <mxGeometry x="131" y="588" width="500" height="240" as="geometry" />
        </mxCell>
        <mxCell id="NzKdBhivD-xaXoP95iIL-28" value="&lt;font style=&quot;font-size: 14px;&quot;&gt;Calculate Route&lt;/font&gt;" style="rounded=1;fillColor=#F1F2F4;strokeColor=none;html=1;whiteSpace=wrap;fontColor=#596780;align=center;verticalAlign=middle;fontStyle=0;fontSize=12;sketch=0;" vertex="1" parent="1">
          <mxGeometry x="510" y="545" width="116" height="33" as="geometry" />
        </mxCell>
        <mxCell id="NzKdBhivD-xaXoP95iIL-29" value="&lt;font style=&quot;font-size: 18px;&quot;&gt;Cancel&lt;/font&gt;" style="rounded=1;fillColor=#F1F2F4;strokeColor=none;html=1;whiteSpace=wrap;fontColor=#596780;align=center;verticalAlign=middle;fontStyle=0;fontSize=12;sketch=0;" vertex="1" parent="1">
          <mxGeometry x="540" y="838" width="90" height="33" as="geometry" />
        </mxCell>
        <mxCell id="NzKdBhivD-xaXoP95iIL-31" value="&lt;font style=&quot;font-size: 18px;&quot;&gt;Save&lt;/font&gt;" style="rounded=1;fillColor=#F1F2F4;strokeColor=none;html=1;whiteSpace=wrap;fontColor=#596780;align=center;verticalAlign=middle;fontStyle=0;fontSize=12;sketch=0;" vertex="1" parent="1">
          <mxGeometry x="460" y="838" width="70" height="33" as="geometry" />
        </mxCell>
        <mxCell id="NzKdBhivD-xaXoP95iIL-32" value="&lt;div align=&quot;left&quot;&gt;&lt;span style=&quot;color: rgb(78, 78, 78);&quot;&gt;Distance:&lt;/span&gt;&lt;/div&gt;" style="text;html=1;align=left;verticalAlign=middle;whiteSpace=wrap;rounded=0;" vertex="1" parent="1">
          <mxGeometry x="130" y="477" width="60" height="30" as="geometry" />
        </mxCell>
        <mxCell id="NzKdBhivD-xaXoP95iIL-33" value="&lt;span style=&quot;color: rgb(78, 78, 78);&quot;&gt;Duration:&lt;/span&gt;" style="text;html=1;align=left;verticalAlign=middle;whiteSpace=wrap;rounded=0;" vertex="1" parent="1">
          <mxGeometry x="390" y="477" width="60" height="30" as="geometry" />
        </mxCell>
        <mxCell id="NzKdBhivD-xaXoP95iIL-35" value="&lt;span style=&quot;color: rgb(78, 78, 78);&quot;&gt;Transport:&lt;/span&gt;" style="text;html=1;align=left;verticalAlign=middle;whiteSpace=wrap;rounded=0;" vertex="1" parent="1">
          <mxGeometry x="130" y="418" width="60" height="30" as="geometry" />
        </mxCell>
        <mxCell id="NzKdBhivD-xaXoP95iIL-39" value="&lt;span style=&quot;color: rgb(78, 78, 78);&quot;&gt;End Location:&lt;/span&gt;" style="text;html=1;align=left;verticalAlign=middle;whiteSpace=wrap;rounded=0;" vertex="1" parent="1">
          <mxGeometry x="390" y="350" width="99" height="30" as="geometry" />
        </mxCell>
        <mxCell id="NzKdBhivD-xaXoP95iIL-40" value="&lt;span style=&quot;color: rgb(78, 78, 78);&quot;&gt;Description:&lt;/span&gt;" style="text;html=1;align=left;verticalAlign=middle;whiteSpace=wrap;rounded=0;" vertex="1" parent="1">
          <mxGeometry x="130" y="241" width="99" height="30" as="geometry" />
        </mxCell>
        <mxCell id="NzKdBhivD-xaXoP95iIL-41" value="&lt;span style=&quot;color: rgb(78, 78, 78);&quot;&gt;Name:&lt;/span&gt;" style="text;html=1;align=left;verticalAlign=middle;whiteSpace=wrap;rounded=0;" vertex="1" parent="1">
          <mxGeometry x="130" y="181" width="99" height="30" as="geometry" />
        </mxCell>
      </root>
    </mxGraphModel>
  </diagram>
</mxfile>
